<svg width="25" height="25" viewBox="0 0 25 25" fill="none" xmlns="http://www.w3.org/2000/svg">
<path d="M16.1828 11.1694C16.1828 12.1242 15.8035 13.0399 15.1284 13.715C14.4532 14.3901 13.5376 14.7694 12.5828 14.7694C11.628 14.7694 10.7123 14.3901 10.0372 13.715C9.36206 13.0399 8.98277 12.1242 8.98277 11.1694C8.98277 10.2146 9.36206 9.29897 10.0372 8.62384C10.7123 7.94871 11.628 7.56943 12.5828 7.56943C13.5376 7.56943 14.4532 7.94871 15.1284 8.62384C15.8035 9.29897 16.1828 10.2146 16.1828 11.1694ZM14.9828 11.1694C14.9828 10.5329 14.7299 9.92246 14.2798 9.47237C13.8297 9.02228 13.2193 8.76943 12.5828 8.76943C11.9463 8.76943 11.3358 9.02228 10.8857 9.47237C10.4356 9.92246 10.1828 10.5329 10.1828 11.1694C10.1828 11.8059 10.4356 12.4164 10.8857 12.8665C11.3358 13.3166 11.9463 13.5694 12.5828 13.5694C13.2193 13.5694 13.8297 13.3166 14.2798 12.8665C14.7299 12.4164 14.9828 11.8059 14.9828 11.1694ZM18.5228 17.1154C20.0983 15.5391 20.9833 13.4017 20.9833 11.173C20.9833 8.94437 20.0983 6.80693 18.5228 5.23063C17.7427 4.45052 16.8167 3.83171 15.7975 3.40951C14.7783 2.98732 13.6859 2.77002 12.5828 2.77002C11.4796 2.77002 10.3872 2.98732 9.36803 3.40951C8.34884 3.83171 7.4228 4.45052 6.64277 5.23063C5.06728 6.80693 4.18225 8.94437 4.18225 11.173C4.18225 13.4017 5.06728 15.5391 6.64277 17.1154L8.46797 18.9142L10.9196 21.2962L11.0792 21.4378C12.0092 22.1914 13.3712 22.1434 14.2472 21.2962L17.1692 18.4522L18.5228 17.1154ZM7.48877 6.07663C8.15746 5.4072 8.95154 4.87613 9.8256 4.5138C10.6997 4.15146 11.6366 3.96496 12.5828 3.96496C13.529 3.96496 14.4659 4.15146 15.3399 4.5138C16.214 4.87613 17.0081 5.4072 17.6768 6.07663C18.9899 7.39146 19.7448 9.1624 19.7842 11.0202C19.8235 12.8781 19.1442 14.6794 17.888 16.0486L17.6768 16.2694L16.0916 17.8342L13.4156 20.437L13.3028 20.533C13.0949 20.6886 12.8422 20.7726 12.5826 20.7724C12.3229 20.7722 12.0704 20.6878 11.8628 20.5318L11.7512 20.4358L8.17517 16.9498L7.48877 16.2694L7.27757 16.0498C6.0213 14.6806 5.34203 12.8793 5.38138 11.0214C5.42073 9.1636 6.17566 7.39146 7.48877 6.07663Z" fill="white"/>
</svg>
